<?xml version="1.0" encoding="UTF-8" standalone="no"?><!DOCTYPE svg PUBLIC "-//W3C//DTD SVG 1.1//EN" "http://www.w3.org/Graphics/SVG/1.1/DTD/svg11.dtd"><svg width="100%" height="100%" viewBox="0 0 2134 2134" version="1.1" xmlns="http://www.w3.org/2000/svg" xmlns:xlink="http://www.w3.org/1999/xlink" xml:space="preserve" xmlns:serif="http://www.serif.com/" style="fill-rule:evenodd;clip-rule:evenodd;stroke-linejoin:round;stroke-miterlimit:2;"><g><path d="M1766.67,266.667l-366.667,-0l0,-66.667c0,-110.458 -89.542,-200 -200,-200l-266.667,-0c-110.458,-0 -200,89.542 -200,200l0,66.667l-366.666,-0c-92.046,-0 -166.667,74.62 -166.667,166.666l0,133.334c0,36.82 29.846,66.666 66.667,66.666l1600,0c36.821,0 66.666,-29.846 66.666,-66.666l0,-133.334c0,-92.046 -74.62,-166.666 -166.666,-166.666Zm-900,-66.667c-0,-36.75 29.916,-66.667 66.666,-66.667l266.667,0c36.75,0 66.667,29.917 66.667,66.667l-0,66.667l-400,-0l-0,-66.667Z" style="fill:#676767;fill-rule:nonzero;"/><path d="M326.517,766.667c-11.896,-0 -21.375,9.941 -20.809,21.825l55,1154.34c5.084,106.834 92.834,190.5 199.75,190.5l1012.42,0c106.917,0 194.667,-83.666 199.75,-190.5l55,-1154.34c0.567,-11.884 -8.912,-21.825 -20.808,-21.825l-1480.3,-0Zm1006.82,166.666c0,-36.833 29.834,-66.666 66.667,-66.666c36.833,-0 66.667,29.833 66.667,66.666l-0,866.667c-0,36.833 -29.834,66.667 -66.667,66.667c-36.833,-0 -66.667,-29.834 -66.667,-66.667l0,-866.667Zm-333.333,0c0,-36.833 29.833,-66.666 66.667,-66.666c36.833,-0 66.666,29.833 66.666,66.666l0,866.667c0,36.833 -29.833,66.667 -66.666,66.667c-36.834,-0 -66.667,-29.834 -66.667,-66.667l0,-866.667Zm-333.333,0c-0,-36.833 29.833,-66.666 66.666,-66.666c36.834,-0 66.667,29.833 66.667,66.666l0,866.667c0,36.833 -29.833,66.667 -66.667,66.667c-36.833,-0 -66.666,-29.834 -66.666,-66.667l-0,-866.667Z" style="fill:#676767;fill-rule:nonzero;"/></g></svg>