<?xml version="1.0" encoding="UTF-8" standalone="no"?><!DOCTYPE svg PUBLIC "-//W3C//DTD SVG 1.1//EN" "http://www.w3.org/Graphics/SVG/1.1/DTD/svg11.dtd"><svg width="100%" height="100%" viewBox="0 0 2134 2134" version="1.1" xmlns="http://www.w3.org/2000/svg" xmlns:xlink="http://www.w3.org/1999/xlink" xml:space="preserve" xmlns:serif="http://www.serif.com/" style="fill-rule:evenodd;clip-rule:evenodd;stroke-linejoin:round;stroke-miterlimit:2;"><path d="M2055.23,878.103c104.139,104.139 104.139,272.984 -0,377.123c-104.14,104.14 -272.984,104.14 -377.124,0c-104.139,-104.139 -104.139,-272.984 0,-377.123c104.14,-104.139 272.984,-104.139 377.124,0" style="fill:#676767;fill-rule:nonzero;"/><path d="M1255.23,878.103c104.14,104.139 104.14,272.984 0,377.123c-104.139,104.14 -272.983,104.14 -377.123,0c-104.139,-104.139 -104.139,-272.984 0,-377.123c104.14,-104.139 272.984,-104.139 377.123,0" style="fill:#676767;fill-rule:nonzero;"/><path d="M455.231,878.103c104.139,104.139 104.139,272.984 -0,377.123c-104.14,104.14 -272.984,104.14 -377.123,0c-104.14,-104.139 -104.14,-272.984 -0,-377.123c104.139,-104.139 272.983,-104.139 377.123,0" style="fill:#676767;fill-rule:nonzero;"/></svg>